<svg width="103" height="103" xmlns="http://www.w3.org/2000/svg">
 <title>logoipsum-4</title>

 <g>
  <title>background</title>
  <rect fill="none" id="canvas_background" height="105" width="105" y="-1" x="-1"/>
 </g>
 <g>
  <title>Layer 1</title>
  <path id="svg_1" fill="#394149" d="m1.789971,42.540184l3,0l0,14.71l-3,0l0,-14.71z"/>
  <path id="svg_2" fill="#394149" d="m6.529971,52.210184a5.34,5.34 0 1 1 5.34,5.33a5.28,5.28 0 0 1 -5.34,-5.33zm7.66,0a2.32,2.32 0 1 0 -2.32,2.38a2.26,2.26 0 0 0 2.32,-2.38z"/>
  <path id="svg_3" fill="#394149" d="m29.269971,47.170184l0,9.58c0,3.39 -2.65,4.82 -5.33,4.82a5.15,5.15 0 0 1 -4.77,-2.44l2.58,-1.49a2.3,2.3 0 0 0 2.25,1.27a2,2 0 0 0 2.32,-2.16l0,-0.93a3.56,3.56 0 0 1 -2.94,1.31a5.12,5.12 0 0 1 0,-10.24a3.59,3.59 0 0 1 2.94,1.31l0,-1l2.95,-0.03zm-5.9,4.87a2.44,2.44 0 1 0 -2.44,2.34a2.28,2.28 0 0 0 5.39,-2.37l-2.95,0.03z"/>
  <path id="svg_4" fill="#394149" d="m30.999971,52.210184a5.34,5.34 0 1 1 5.34,5.33a5.28,5.28 0 0 1 -5.34,-5.33zm7.66,0a2.32,2.32 0 1 0 -2.32,2.38a2.26,2.26 0 0 0 2.3,-2.38l0.02,0z"/>
  <path id="svg_5" fill="#394149" d="m43.069971,44.470184a1.82,1.82 0 1 1 1.82,1.82a1.83,1.83 0 0 1 -1.82,-1.82zm0.31,2.7l3,0l0,10.08l-3,0l0,-10.08z"/>
  <path id="svg_6" fill="#394149" d="m59.459971,52.210184a5.06,5.06 0 0 1 -4.81,5.33a3.83,3.83 0 0 1 -3,-1.23l0,5l-3,0l0,-14.14l3,0l0,0.95a3.83,3.83 0 0 1 3,-1.23a5.06,5.06 0 0 1 4.81,5.32zm-3,0a2.4,2.4 0 1 0 -2.46,2.46a2.3,2.3 0 0 0 2.44,-2.46l0.02,0z"/>
  <path id="svg_7" fill="#394149" d="m68.799971,54.230184c0,2.32 -2,3.31 -4.2,3.31a4.42,4.42 0 0 1 -4.33,-2.4l2.62,-1.49a1.66,1.66 0 0 0 1.71,1.19c0.73,0 1.09,-0.23 1.09,-0.63c0,-1.11 -5,-0.52 -5,-4c0,-2.2 1.86,-3.31 4,-3.31a4.43,4.43 0 0 1 3.94,2.16l-2.63,1.38a1.49,1.49 0 0 0 -1.36,-0.89c-0.52,0 -0.84,0.2 -0.84,0.57c0.04,1.15 5,0.38 5,4.11z"/>
  <path id="svg_8" fill="#394149" d="m79.839971,47.170184l0,10.08l-3,0l0,-0.94a3.45,3.45 0 0 1 -2.88,1.23c-2,0 -3.77,-1.45 -3.77,-4.18l0,-6.19l3,0l0,5.75a1.66,1.66 0 0 0 1.81,1.83c1.1,0 1.87,-0.64 1.87,-2.07l0,-5.51l2.97,0z"/>
  <path id="svg_9" fill="#394149" d="m97.179971,51.070184l0,6.18l-3,0l0,-5.92c0,-1 -0.49,-1.66 -1.45,-1.66s-1.58,0.71 -1.58,1.9l0,5.68l-3,0l0,-5.92c0,-1 -0.48,-1.66 -1.45,-1.66s-1.57,0.71 -1.57,1.9l0,5.68l-3,0l0,-10.08l3,0l0,0.93a3.1,3.1 0 0 1 2.7,-1.21a3,3 0 0 1 2.64,1.33a3.32,3.32 0 0 1 2.92,-1.33c2.28,0 3.79,1.66 3.79,4.18z"/>
  <circle id="svg_10" fill="#394149" r="2.24" cy="44.870184" cx="99.739971"/>
 </g>
</svg>